<?xml version="1.0" encoding="UTF-8" standalone="no"?><!DOCTYPE svg PUBLIC "-//W3C//DTD SVG 1.1//EN" "http://www.w3.org/Graphics/SVG/1.1/DTD/svg11.dtd"><svg width="100%" height="100%" viewBox="0 0 500 500" version="1.1" xmlns="http://www.w3.org/2000/svg" xmlns:xlink="http://www.w3.org/1999/xlink" xml:space="preserve" xmlns:serif="http://www.serif.com/" style="fill-rule:evenodd;clip-rule:evenodd;stroke-linejoin:round;stroke-miterlimit:2;"><g id="Layer1"><path d="M175,135c0,-14.033 24.924,-25 59.5,-25c34.576,0 54.902,23.232 54.902,37.265c19.222,-9.923 54.678,-7.732 79.127,4.889c24.449,12.621 28.693,30.923 9.471,40.846c27.184,0 57,2.651 57,20.5c0,17.849 -22.07,32.34 -49.254,32.34c19.222,9.922 13.83,26.65 -10.619,39.271c-24.45,12.621 -59.905,14.812 -79.127,4.889c0,14.033 -25.424,31 -60,31c-34.576,0 -62,-1.967 -62,-16c-19.222,9.923 -54.677,7.732 -79.127,-4.889c-24.449,-12.621 -28.693,-30.924 -9.471,-40.846c-27.184,-0 -51.402,-27.916 -51.402,-45.765c0,-17.849 22.07,-32.34 49.254,-32.34c-19.222,-9.922 -19.703,-48.539 4.746,-61.16c24.449,-12.621 67.778,5.077 87,15Z" style="fill:#fff;"/></g></svg>