<?xml version="1.0" encoding="UTF-8" standalone="no"?><!DOCTYPE svg PUBLIC "-//W3C//DTD SVG 1.1//EN" "http://www.w3.org/Graphics/SVG/1.1/DTD/svg11.dtd"><svg width="100%" height="100%" viewBox="0 0 500 700" version="1.1" xmlns="http://www.w3.org/2000/svg" xmlns:xlink="http://www.w3.org/1999/xlink" xml:space="preserve" xmlns:serif="http://www.serif.com/" style="fill-rule:evenodd;clip-rule:evenodd;stroke-linecap:round;stroke-linejoin:round;stroke-miterlimit:1.5;"><path id="Rock-1" serif:id="Rock 1" d="M46,271l-21,3l-10,19l18.5,11l-0,6l-9.5,9l44,45l374,2l27,-6l-2.5,-41l9.5,-28l-6,-8l-16,-6l-408,-6Z" style="fill:#999;"/><clipPath id="_clip1"><path id="Rock-11" serif:id="Rock 1" d="M46,271l-21,3l-10,19l18.5,11l-0,6l-9.5,9l44,45l374,2l27,-6l-2.5,-41l9.5,-28l-6,-8l-16,-6l-408,-6Z"/></clipPath><g clip-path="url(#_clip1)"><g id="Rock-Shades" serif:id="Rock Shades"><g id="Layer5"><path d="M38,292l7,11l-8,15l2,12l23,17l15,9l14,1l17,-10l6,-2l7,0l2,5l16,-12l6,-4l6,-7l16,-5l12,27l17,13l20,-19l7,1l4,3l7,-10l4,-3l13,-16l13,-2l11,-3l0,27l8,2l10,4l14,7l11,-2l14,-17l8,-13l18,-6l8,6l6,8l7,-16l10,-2l7,11l8,22l9,1l8,-2l8,7l9,-9l9,-1l5,1l8,-26l6,-6l9,-1l1,75l-438,-9l-25,-53l25,-29Z" style="fill:#a6a6a6;"/></g><g id="Layer4"><path d="M29,302l6,6l0,5l-11,4l-1,5l7,0l5,7l3,7l11,6l10,11l2,8l16,0l10,6l13,-8l10,-3l8,3l15,-4l13,-12l9,-6l4,0l4,-5l5,4l5,16l8,10l9,7l11,-5l17,-5l11,-2l8,-10l7,-3l7,-10l8,-4l6,2l8,15l13,3l7,8l12,4l7,-3l7,0l15,-5l4,-9l11,-3l6,-6l6,-1l7,4l6,0l8,-11l10,11l9,9l12,2l8,5l12,-1l8,-8l15,0l5,-12l4,-9l-2,-6l9,-5l13,77l-466,4l-5,-86l15,-7Z" style="fill:#848484;"/></g><g id="Layer3"><path d="M32,308l2,3l-1,1l-7,3l-1,5l1,2l3,1l3,5l5,7l7,6l6,3l5,6l2,4l6,8l8,0l3,1l3,0l4,2l12,0l6,-3l8,-1l2,-1l5,2l7,-1l6,1l10,-3l9,-2l7,-5l9,-1l7,4l5,5l18,5l5,2l12,-3l13,-2l5,0l8,-1l10,-5l6,-5l7,-4l5,1l4,7l9,-1l5,3l7,5l10,2l10,3l15,-4l10,-2l8,-5l12,-6l12,2l8,-2l10,-2l11,5l14,5l7,5l11,2l12,-4l9,-6l9,-1l9,-8l4,-13l-3,-12l-1,-2l3,-2l11,68l-472,-5l12,-74l13,2Z" style="fill:#666;"/></g></g><g id="Grass"><rect x="8" y="197" width="473" height="102" style="fill:#6c0;"/><path d="M91.182,257.175c-0,-5.336 11.871,-9.669 26.494,-9.669c14.623,0 26.495,4.333 26.495,9.669c12.514,-4.976 33.744,-8.355 47.379,-7.541c13.635,0.813 14.546,5.513 2.032,10.489c23.338,-3.943 51.059,-5.913 61.865,-4.395c10.806,1.517 0.632,5.951 -22.706,9.894c31.01,-2.379 61.478,-2.673 67.996,-0.656c6.518,2.016 -13.366,5.584 -44.377,7.962c34.494,-0.492 63.595,0.929 64.944,3.172c1.349,2.243 -25.56,4.463 -60.054,4.956c33.319,1.46 57.121,4.404 53.12,6.571c-4.002,2.166 -34.302,2.739 -67.621,1.279c27.644,3.216 42.934,7.286 34.122,9.083c-8.812,1.798 -38.411,0.646 -66.056,-2.569c18.237,4.537 22.949,9.182 10.517,10.368c-12.433,1.186 -37.332,-1.535 -55.569,-6.071c6.366,5.245 -0.136,9.839 -14.51,10.253c-14.374,0.414 -31.211,-3.508 -37.577,-8.754c-6.365,5.246 -23.203,9.168 -37.577,8.754c-14.373,-0.414 -20.875,-5.008 -14.51,-10.253c-18.236,4.536 -43.136,7.257 -55.568,6.071c-12.433,-1.186 -7.721,-5.831 10.516,-10.368c-27.645,3.215 -57.243,4.367 -66.055,2.569c-8.812,-1.797 6.477,-5.867 34.122,-9.083c-33.319,1.46 -63.619,0.887 -67.621,-1.279c-4.002,-2.167 19.8,-5.111 53.12,-6.571c-34.494,-0.493 -61.404,-2.713 -60.054,-4.956c1.349,-2.243 30.449,-3.664 64.943,-3.172c-31.01,-2.378 -50.895,-5.946 -44.377,-7.962c6.518,-2.017 36.986,-1.723 67.996,0.656c-23.338,-3.943 -33.512,-8.377 -22.706,-9.894c10.807,-1.518 38.528,0.452 61.866,4.395c-12.514,-4.976 -11.604,-9.676 2.031,-10.489c13.636,-0.814 34.866,2.565 47.38,7.541Z" style="fill:#6c0;"/><path d="M285.675,258.668c0,-5.336 11.872,-9.668 26.495,-9.668c14.623,0 26.494,4.332 26.494,9.668c12.514,-4.975 33.744,-8.355 47.38,-7.541c13.635,0.814 14.545,5.514 2.031,10.49c23.338,-3.944 51.059,-5.913 61.866,-4.396c10.806,1.518 0.632,5.951 -22.706,9.895c31.01,-2.379 61.478,-2.673 67.996,-0.657c6.518,2.017 -13.367,5.584 -44.377,7.963c34.494,-0.492 63.594,0.929 64.943,3.172c1.35,2.242 -25.56,4.463 -60.054,4.955c33.32,1.461 57.122,4.405 53.12,6.571c-4.002,2.167 -34.301,2.74 -67.621,1.28c27.645,3.216 42.935,7.286 34.122,9.083c-8.812,1.797 -38.41,0.646 -66.055,-2.57c18.237,4.537 22.949,9.183 10.516,10.369c-12.432,1.186 -37.332,-1.535 -55.568,-6.072c6.365,5.245 -0.137,9.84 -14.51,10.254c-14.374,0.414 -31.212,-3.509 -37.577,-8.754c-6.366,5.245 -23.203,9.168 -37.577,8.754c-14.374,-0.414 -20.875,-5.009 -14.51,-10.254c-18.237,4.537 -43.136,7.258 -55.569,6.072c-12.432,-1.186 -7.72,-5.832 10.517,-10.369c-27.645,3.216 -57.243,4.367 -66.056,2.57c-8.812,-1.797 6.478,-5.867 34.123,-9.083c-33.32,1.46 -63.62,0.887 -67.621,-1.28c-4.002,-2.166 19.8,-5.11 53.119,-6.571c-34.494,-0.492 -61.403,-2.713 -60.054,-4.955c1.349,-2.243 30.45,-3.664 64.944,-3.172c-31.01,-2.379 -50.895,-5.946 -44.377,-7.963c6.518,-2.016 36.986,-1.722 67.996,0.657c-23.338,-3.944 -33.512,-8.377 -22.706,-9.895c10.806,-1.517 38.527,0.452 61.865,4.396c-12.514,-4.976 -11.603,-9.676 2.032,-10.49c13.635,-0.814 34.865,2.566 47.379,7.541Z" style="fill:#6c0;"/><path d="M80.459,258.538c0,-5.264 9.63,-9.538 21.49,-9.538c11.861,0 21.491,4.274 21.491,9.538c10.073,-5.03 27.453,-8.677 38.787,-8.139c11.334,0.539 12.357,5.06 2.283,10.091c19.252,-4.35 42.839,-7.046 52.638,-6.017c9.8,1.03 2.126,5.396 -17.125,9.746c26.719,-3.282 54.416,-4.787 61.811,-3.359c7.395,1.428 -8.294,5.253 -35.014,8.535c31.814,-1.923 61.16,-2.104 65.493,-0.403c4.333,1.7 -17.977,4.643 -49.79,6.566c34.08,-0.394 62.468,0.766 63.355,2.588c0.886,1.822 -26.063,3.62 -60.143,4.014c33.319,1.171 58.226,3.568 55.587,5.349c-2.639,1.782 -31.832,2.277 -65.151,1.105c29.597,2.632 48.811,6.054 42.881,7.636c-5.931,1.582 -34.774,0.73 -64.371,-1.902c23.245,3.859 35.058,8 26.364,9.243c-8.695,1.243 -34.626,-0.881 -57.871,-4.74c14.828,4.743 18.191,9.237 7.505,10.03c-10.687,0.792 -31.401,-2.415 -46.229,-7.158c5.093,5.206 -0.293,9.653 -12.021,9.925c-11.729,0.272 -25.386,-3.733 -30.48,-8.938c-5.093,5.205 -18.75,9.21 -30.479,8.938c-11.728,-0.272 -17.115,-4.719 -12.021,-9.925c-14.828,4.743 -35.543,7.95 -46.229,7.158c-10.686,-0.793 -7.323,-5.287 7.505,-10.03c-23.245,3.859 -49.176,5.983 -57.871,4.74c-8.694,-1.243 3.119,-5.384 26.364,-9.243c-29.597,2.632 -58.44,3.484 -64.371,1.902c-5.93,-1.582 13.284,-5.004 42.881,-7.636c-33.319,1.172 -62.512,0.677 -65.151,-1.105c-2.64,-1.781 22.268,-4.178 55.587,-5.349c-34.08,-0.394 -61.029,-2.192 -60.143,-4.014c0.887,-1.822 29.275,-2.982 63.355,-2.588c-31.813,-1.923 -54.123,-4.866 -49.79,-6.566c4.333,-1.701 33.679,-1.52 65.492,0.403c-26.719,-3.282 -42.408,-7.107 -35.013,-8.535c7.395,-1.428 35.092,0.077 61.811,3.359c-19.252,-4.35 -26.925,-8.716 -17.126,-9.746c9.8,-1.029 33.387,1.667 52.638,6.017c-10.073,-5.031 -9.05,-9.552 2.284,-10.091c11.334,-0.538 28.714,3.109 38.787,8.139Z" style="fill:#6c0;"/><path d="M325.181,257.047c0,-5.545 16.722,-10.047 37.319,-10.047c20.597,-0 37.319,4.502 37.319,10.047c17.999,-4.802 47.094,-7.413 64.931,-5.827c17.837,1.587 17.706,6.773 -0.293,11.575c31.175,-2.772 64.847,-2.793 75.145,-0.045c10.299,2.748 -6.651,7.229 -37.827,10.002c35.999,-0 65.225,2.575 65.225,5.748c0,3.173 -29.226,5.748 -65.225,5.748c31.176,2.773 48.126,7.254 37.827,10.002c-10.298,2.748 -43.97,2.727 -75.145,-0.045c17.999,4.802 18.13,9.988 0.293,11.575c-17.837,1.586 -46.932,-1.025 -64.931,-5.827c-0,5.545 -16.722,10.047 -37.319,10.047c-20.597,0 -37.319,-4.502 -37.319,-10.047c-17.999,4.802 -47.094,7.413 -64.931,5.827c-17.837,-1.587 -17.706,-6.773 0.293,-11.575c-31.175,2.772 -64.847,2.793 -75.145,0.045c-10.299,-2.748 6.651,-7.229 37.827,-10.002c-35.999,0 -65.225,-2.575 -65.225,-5.748c-0,-3.173 29.226,-5.748 65.225,-5.748c-31.176,-2.773 -48.126,-7.254 -37.827,-10.002c10.298,-2.748 43.97,-2.727 75.145,0.045c-17.999,-4.802 -18.13,-9.988 -0.293,-11.575c17.837,-1.586 46.932,1.025 64.931,5.827Z" style="fill:#6c0;"/></g><path d="M47,266l-5,8l14,8l14,0l26,1l15,-1l7,2l18,2l1,-2l11,0l16,-1l17,2l5,-3l23,0l19,-2l22,0l11,2l26,2l11,-3l21,1l17,7l21,-6l35,1l20,3l34,0l13,-2l8,-7l-13,-7l-407,-5Z" style="fill:#090;"/></g><path id="Rock-2" serif:id="Rock 2" d="M108,489l6,24l28,15l17,31l33,34l3,16l8,5l1,21l22,5l16,-13l10,6l6,-12l6,1l1,11l18,-8l1,-6l9,4l20,-23l-8,-13l38,-40l13,-24l24,-26l21,-1l8,-5l-301,-2Z" style="fill:#999;"/><clipPath id="_clip2"><path d="M108,489l6,24l28,15l17,31l33,34l3,16l8,5l1,21l22,5l16,-13l10,6l6,-12l6,1l1,11l18,-8l1,-6l9,4l20,-23l-8,-13l38,-40l13,-24l24,-26l21,-1l8,-5l-301,-2Z"/></clipPath><g clip-path="url(#_clip2)"><g id="Layer8"><path d="M112,486l24,12l31,26l10,45l8,12l15,1l16,10l13,11l15,-2l13,-4l8,0l8,-4l16,-21l19,1l15,-12l11,-25l12,-5l3,-18l26,-14l12,-10l31,0l-23,178l-216,-2l-55,-56l-38,-100l26,-23Z" style="fill:#a6a6a6;"/></g><g id="Layer7"><path d="M104,489l42,19l22,49l2,16l12,15l13,-1l6,28l14,10l9,-1l15,6l7,-4l9,-1l2,0l6,-7l14,7l9,-8l18,-18l8,-5l14,-25l8,-27l11,-7l8,-17l15,-11l17,-13l13,-7l19,2l-20,170l-210,1l-83,-171Z" style="fill:#848484;"/></g><g id="Layer6"><path d="M105,489l21,24l28,20l11,35l15,21l14,1l4,21l8,11l13,12l21,-4l12,-5l4,3l5,-9l6,0l10,12l8,-9l3,-5l21,-17l13,-18l14,-38l17,-5l0,-18l19,-13l17,-15l15,-5l11,0l-10,170l-267,-4l-33,-165Z" style="fill:#666;"/></g></g><g id="Castle"><g><rect x="202.637" y="275.316" width="88.163" height="1.938" style="fill:#ebebeb;"/><path d="M206.513,187.153l-0,90.1l29.082,0l-0.018,-34.877l5.813,-6.782l11.626,0l5.813,6.782l0.1,34.877l28.965,0l-0,-90.1l-8.894,0l0,7.751l-5.639,-0l0,-7.751l-7.75,0l-0,7.751l-6.782,-0l0,-7.751l-7.75,0l-0,7.751l-7.751,-0l-0,-7.751l-6.782,0l0,7.751l-7.75,-0l-0,-7.751l-7.751,0l0,7.751l-5.045,-0l0,-7.751l-9.487,0Z" style="fill:#ebebeb;"/><clipPath id="_clip3"><path d="M206.513,187.153l-0,90.1l29.082,0l-0.018,-34.877l5.813,-6.782l11.626,0l5.813,6.782l0.1,34.877l28.965,0l-0,-90.1l-8.894,0l0,7.751l-5.639,-0l0,-7.751l-7.75,0l-0,7.751l-6.782,-0l0,-7.751l-7.75,0l-0,7.751l-7.751,-0l-0,-7.751l-6.782,0l0,7.751l-7.75,-0l-0,-7.751l-7.751,0l0,7.751l-5.045,-0l0,-7.751l-9.487,0Z"/></clipPath><g clip-path="url(#_clip3)"><rect x="276" y="185" width="6" height="10" style="fill:#ccc;"/><rect x="213" y="184.406" width="7.568" height="10.594" style="fill:#ccc;"/></g></g><g><path d="M103.172,215.087l-0,62.166l104.794,0l-0,-62.166l-11.966,0l0,12.434l-11.124,-0l-0,-12.434l-10.657,0l-0,12.434l-14.21,-0l0,-12.434l-10.657,0l0,12.434l-10.657,-0l0,-12.434l-12.433,0l-0,12.434l-11.262,-0l-0,-12.434l-11.828,0Z" style="fill:#ebebeb;"/><clipPath id="_clip4"><path d="M103.172,215.087l-0,62.166l104.794,0l-0,-62.166l-11.966,0l0,12.434l-11.124,-0l-0,-12.434l-10.657,0l-0,12.434l-14.21,-0l0,-12.434l-10.657,0l0,12.434l-10.657,-0l0,-12.434l-12.433,0l-0,12.434l-11.262,-0l-0,-12.434l-11.828,0Z"/></clipPath><g clip-path="url(#_clip4)"><rect x="112" y="209" width="5" height="18.571" style="fill:#ccc;"/><rect x="136" y="209" width="5" height="18.571" style="fill:#ccc;"/><rect x="171" y="209" width="5" height="18.571" style="fill:#ccc;"/><rect x="194" y="209" width="5" height="18.571" style="fill:#ccc;"/></g><rect x="96.067" y="273.701" width="117.227" height="3.552" style="fill:#ebebeb;"/></g><path d="M37.938,116.429l-0,39.447l11.967,12.138l0,109.239l55.052,0l0,-106.204l14.362,-15.173l-0,-39.447l-16.381,-0l-0,18.207l-14.736,-0l0,-18.207l-19.148,-0l-0,18.207l-13.116,-0l-0,-18.207l-18,-0Z" style="fill:#ebebeb;"/><clipPath id="_clip5"><path d="M37.938,116.429l-0,39.447l11.967,12.138l0,109.239l55.052,0l0,-106.204l14.362,-15.173l-0,-39.447l-16.381,-0l-0,18.207l-14.736,-0l0,-18.207l-19.148,-0l-0,18.207l-13.116,-0l-0,-18.207l-18,-0Z"/></clipPath><g clip-path="url(#_clip5)"><rect x="50.938" y="116" width="5" height="18.571" style="fill:#ccc;"/><rect x="84.938" y="116" width="5" height="18.571" style="fill:#ccc;"/><rect x="101.938" y="116" width="5" height="18.571" style="fill:#ccc;"/></g><g><path d="M388.328,215.087l0,62.166l-104.794,0l0,-62.166l10.657,0l0,12.434l12.433,-0l0,-12.434l10.657,0l0,12.434l14.21,-0l-0,-12.434l10.657,0l-0,12.434l10.657,-0l-0,-12.434l12.433,0l0,12.434l12.433,-0l0,-12.434l10.657,0Z" style="fill:#ebebeb;"/><clipPath id="_clip6"><path d="M388.328,215.087l0,62.166l-104.794,0l0,-62.166l10.657,0l0,12.434l12.433,-0l0,-12.434l10.657,0l0,12.434l14.21,-0l-0,-12.434l10.657,0l-0,12.434l10.657,-0l-0,-12.434l12.433,0l0,12.434l12.433,-0l0,-12.434l10.657,0Z"/></clipPath><g clip-path="url(#_clip6)"><rect x="304" y="209" width="5" height="18.571" style="fill:#ccc;"/><rect x="328" y="209" width="5" height="18.571" style="fill:#ccc;"/><rect x="375" y="209" width="5" height="18.571" style="fill:#ccc;"/><rect x="350" y="209" width="5" height="18.571" style="fill:#ccc;"/></g><rect x="278.206" y="273.701" width="117.227" height="3.552" style="fill:#ebebeb;"/></g><path d="M454.381,116.429l0,39.447l-11.968,12.138l0,109.239l-55.052,0l0,-106.204l-14.361,-15.173l0,-39.447l15.881,-0l0,18.207l15.235,-0l0,-18.207l19.149,-0l-0,18.207l12.616,-0l0,-18.207l18.5,-0Z" style="fill:#ebebeb;"/><clipPath id="_clip7"><path d="M454.381,116.429l0,39.447l-11.968,12.138l0,109.239l-55.052,0l0,-106.204l-14.361,-15.173l0,-39.447l15.881,-0l0,18.207l15.235,-0l0,-18.207l19.149,-0l-0,18.207l12.616,-0l0,-18.207l18.5,-0Z"/></clipPath><g clip-path="url(#_clip7)"><rect x="383.881" y="116" width="5" height="18.571" style="fill:#ccc;"/><rect x="403.881" y="116" width="5" height="18.571" style="fill:#ccc;"/><rect x="435.881" y="116" width="5" height="18.571" style="fill:#ccc;"/></g><g><path id="Tower" d="M209.419,129.629l0,16.712l11.142,13.927l-0,116.985l55.707,0l-0,-116.985l11.141,-13.927l0,-16.712l-77.99,0Z" style="fill:#ebebeb;"/><ellipse cx="250.749" cy="165.839" rx="9.749" ry="16.712" style="fill:#ccc;"/><clipPath id="_clip8"><ellipse cx="250.749" cy="165.839" rx="9.749" ry="16.712"/></clipPath><g clip-path="url(#_clip8)"><ellipse cx="250.942" cy="165.063" rx="9.296" ry="15.937" style="fill:#ffff4e;"/></g><path id="Flag-Rod" serif:id="Flag Rod" d="M248.414,62.78l0,-41.78" style="fill:none;stroke:#fff;stroke-width:6.25px;"/><path id="Roof" d="M248.005,59.995l-41.005,71.759l82.01,-0l-41.005,-71.759Z" style="fill:#f20d0d;stroke:#f20d0d;stroke-width:1px;"/><rect id="Flag" x="248.414" y="19" width="38.995" height="24" style="fill:#f20d0d;"/></g></g></svg>