<?xml version="1.0" encoding="UTF-8" standalone="no"?><!DOCTYPE svg PUBLIC "-//W3C//DTD SVG 1.1//EN" "http://www.w3.org/Graphics/SVG/1.1/DTD/svg11.dtd"><svg width="100%" height="100%" viewBox="0 0 500 500" version="1.1" xmlns="http://www.w3.org/2000/svg" xmlns:xlink="http://www.w3.org/1999/xlink" xml:space="preserve" xmlns:serif="http://www.serif.com/" style="fill-rule:evenodd;clip-rule:evenodd;stroke-linejoin:round;stroke-miterlimit:2;"><g id="Layer1"><path d="M259,111c0,-16.473 27,-21.667 37,-21c10,0.667 23,8.527 23,25c17.976,-11.648 77.833,-8.667 96,5c18.167,13.667 30.976,65.352 13,77c25.421,0 28.333,22.333 25,30c-3.333,7.667 -19.579,16 -45,16c17.976,11.648 25.864,37.184 3,52c-22.864,14.816 -62.024,18.648 -80,7c0,16.473 -37.309,31.885 -60,35c-22.691,3.115 -76.147,0.162 -76.147,-16.311c-17.975,11.648 -51.132,9.077 -73.996,-5.739c-22.864,-14.816 -26.833,-36.302 -8.857,-47.95c-25.421,-0 -40,-35.547 -40,-56.5c-0,-20.953 36.579,-47.5 62,-47.5c-17.976,-11.648 -8.864,-44.184 14,-59c22.864,-14.816 93.024,-4.648 111,7Z" style="fill:#fff;"/></g></svg>