<?xml version="1.0" encoding="UTF-8" standalone="no"?><!DOCTYPE svg PUBLIC "-//W3C//DTD SVG 1.1//EN" "http://www.w3.org/Graphics/SVG/1.1/DTD/svg11.dtd"><svg width="100%" height="100%" viewBox="0 0 500 500" version="1.1" xmlns="http://www.w3.org/2000/svg" xmlns:xlink="http://www.w3.org/1999/xlink" xml:space="preserve" xmlns:serif="http://www.serif.com/" style="fill-rule:evenodd;clip-rule:evenodd;stroke-linejoin:round;stroke-miterlimit:2;"><g id="Layer1"><path d="M225,106c9.102,-9.722 39,-34.5 60,-33c21,1.5 56.898,32.278 66,42c15.571,-4.911 28.833,-4.5 36,1c7.167,5.5 7.258,20.553 7,32c17.098,1.459 46.466,3.744 55.378,16.704c8.912,12.959 6.796,27.584 -2.739,37.121c13.195,7.366 21.429,21.003 18.376,35.105c-3.053,14.102 -16.739,25.645 -32.525,30.244c5.104,10.935 0.93,25.363 -13.119,36.13c-14.049,10.768 -34.959,15.565 -51.983,13.766c-4.609,11.031 -19.866,21.671 -40.45,25.684c-20.584,4.014 -42.081,0.542 -54.938,-7.083c-12.857,7.625 -34.354,11.097 -54.938,7.083c-20.584,-4.013 -35.841,-14.653 -40.45,-25.684c-17.024,1.799 -37.934,-2.998 -51.983,-13.766c-14.049,-10.767 -18.223,-25.195 -13.119,-36.13c-15.786,-4.599 -29.472,-16.142 -32.525,-30.244c-3.053,-14.102 5.181,-27.739 18.376,-35.105c-9.535,-9.537 -11.651,-24.162 -2.739,-37.121c8.912,-12.96 56.28,-21.245 73.378,-22.704c-0.258,-11.447 6.415,-26.212 15.915,-32.212c9.5,-6 25.514,-8.699 41.085,-3.788Z" style="fill:#fff;"/></g></svg>